<svg width="512" height="512" viewBox="0 0 512 512" fill="none" xmlns="http://www.w3.org/2000/svg">
<rect width="512" height="512" fill="#F5F5F5"/>
<rect width="512" height="512" fill="#023E8A"/>
<path d="M344.527 48L383.199 169.562H384.684L423.434 48H460.934L405.777 208H362.184L306.949 48H344.527Z" fill="white"/>
<path d="M297.252 304H338.971L383.033 411.5H384.908L428.971 304H470.689V464H437.877V359.859H436.549L395.143 463.219H372.799L331.393 359.469H330.064V464H297.252V304Z" fill="white"/>
<path d="M194.846 304V464H165.627L96.0176 363.297H94.8457V464H61.0176V304H90.7051L159.768 404.625H161.174V304H194.846Z" fill="white"/>
<path d="M79.4941 208V48H113.322V180.109H181.916V208H79.4941Z" fill="white"/>
</svg>
